<svg xmlns="http://www.w3.org/2000/svg" viewBox="0 0 512 512">
  <defs>
    <linearGradient id="bg" x1="0%" y1="0%" x2="100%" y2="100%">
      <stop offset="0%" style="stop-color:#1a1a2e"/>
      <stop offset="100%" style="stop-color:#16213e"/>
    </linearGradient>
  </defs>
  <rect width="512" height="512" rx="64" fill="url(#bg)"/>
  <g fill="#00d4aa">
    <!-- WiFi waves -->
    <path d="M256 320 a80 80 0 0 1 80 80 l-160 0 a80 80 0 0 1 80-80z" opacity="0.3"/>
    <circle cx="256" cy="400" r="24"/>
    <path d="M256 280 c-66 0-120 54-120 120 h40 c0-44 36-80 80-80 s80 36 80 80 h40 c0-66-54-120-120-120z" opacity="0.6"/>
    <path d="M256 220 c-99 0-180 81-180 180 h40 c0-77 63-140 140-140 s140 63 140 140 h40 c0-99-81-180-180-180z" opacity="0.8"/>
    <path d="M256 160 c-132 0-240 108-240 240 h40 c0-110 90-200 200-200 s200 90 200 200 h40 c0-132-108-240-240-240z"/>
    <!-- ALTA text -->
    <text x="256" y="130" font-family="Arial, sans-serif" font-size="60" font-weight="bold" text-anchor="middle" fill="#ffffff">ALTA</text>
  </g>
</svg>
